<svg width="512" height="512" viewBox="0 0 512 512" xmlns="http://www.w3.org/2000/svg">
  <!-- Background -->
  <rect width="512" height="512" fill="#8B5A3C" rx="32"/>
  
  <!-- Temple dome -->
  <ellipse cx="256" cy="180" rx="80" ry="60" fill="#FFD700" stroke="#DDD" stroke-width="3"/>
  
  <!-- Temple roof -->
  <polygon points="176,220 336,220 320,180 192,180" fill="#FFD700"/>
  
  <!-- Temple pillars -->
  <rect x="200" y="220" width="16" height="140" fill="#FFFFFF" stroke="#CCC" stroke-width="1"/>
  <rect x="230" y="220" width="16" height="140" fill="#FFFFFF" stroke="#CCC" stroke-width="1"/>
  <rect x="260" y="220" width="16" height="140" fill="#FFFFFF" stroke="#CCC" stroke-width="1"/>
  <rect x="290" y="220" width="16" height="140" fill="#FFFFFF" stroke="#CCC" stroke-width="1"/>
  
  <!-- Temple base -->
  <rect x="180" y="360" width="152" height="32" fill="#FFFFFF" stroke="#CCC" stroke-width="2"/>
  
  <!-- Temple entrance -->
  <rect x="240" y="300" width="32" height="60" fill="#8B5A3C"/>
  
  <!-- Om symbol -->
  <circle cx="256" cy="280" r="20" fill="#FFD700"/>
  <text x="256" y="290" text-anchor="middle" font-family="serif" font-size="24" fill="#8B5A3C">ॐ</text>
  
  <!-- Steps -->
  <rect x="170" y="392" width="172" height="8" fill="#DDD"/>
  <rect x="160" y="400" width="192" height="8" fill="#CCC"/>
  
  <!-- Small decorative elements -->
  <circle cx="220" cy="170" r="4" fill="#FFD700"/>
  <circle cx="292" cy="170" r="4" fill="#FFD700"/>
</svg>